<svg class="nav-logo" x="0px" y="0px" viewBox="0 0 511.45 100" enable-background="new 0 0 511.45 100" xml:space="preserve">
	<path fill="var(--brandColor-logoTxt)" d="M0,0.51h20.03v98.08H0V0.51z M23.66,61.98l23.15,36.6h23.69l-29.91-47.3L23.66,61.98z M114.06,81.75 l-1.72,0.53c-3.44,1.24-7.1,1.85-10.98,1.85c-4.06,0-6.61-1.19-7.67-3.57c-1.06-2.38-1.59-6.83-1.59-13.36V32.29H74.39v34.65 c0,11.9,1.59,20.39,4.76,25.46c3.17,5.07,9.34,7.6,18.51,7.6c4.67,0,10.18-1.76,16.53-5.29v3.7h17.59V32.29h-17.72V81.75z  M194.73,34.14l-4.36-0.79c-8.99-1.67-16.09-2.51-21.29-2.51c-7.5,0-13.62,1.79-18.38,5.36c-4.76,3.57-7.14,8.86-7.14,15.87 s1.67,11.88,5.03,14.61c3.35,2.73,8.44,4.67,15.27,5.82c6.83,1.15,11.06,2.12,12.7,2.91c1.63,0.79,2.45,2.03,2.45,3.7 c0,1.68-0.77,2.93-2.31,3.77c-1.54,0.84-4.45,1.26-8.73,1.26c-4.28,0-11.88-0.71-22.81-2.12l-0.53,14.81l4.23,0.79 c8.29,1.59,15.34,2.38,21.16,2.38c17.72,0,26.58-7.14,26.58-21.42c0-6.52-1.5-11.24-4.5-14.15c-3-2.91-8.05-5-15.14-6.28 c-7.1-1.28-11.5-2.25-13.22-2.91c-1.72-0.66-2.58-1.85-2.58-3.57c0-1.72,0.64-2.97,1.92-3.77c1.28-0.79,4.1-1.19,8.46-1.19 c4.36,0,12.01,0.71,22.94,2.12L194.73,34.14z M225.94,48.69l1.72-0.53c3.44-1.06,6.88-1.59,10.32-1.59c3.97,0,6.61,1.35,7.93,4.03 c1.32,2.69,1.98,6.81,1.98,12.36v35.44h17.72V62.58c0-10.84-1.68-18.86-5.03-24.07c-3.35-5.2-9.43-7.8-18.25-7.8 c-4.85,0-10.31,1.59-16.4,4.76V0h-17.72v98.41h17.72V48.69z M289.02,23.83L289.02,23.83c4.89,0,8.86-3.97,8.86-8.86V14.7 c0-4.89-3.97-8.86-8.86-8.86l0,0c-4.89,0-8.86,3.97-8.86,8.86v0.27C280.16,19.86,284.12,23.83,289.02,23.83z M297.88,98.41V32.29 h-17.72v66.12H297.88z M330.81,48.95l1.59-0.53c3.35-1.23,6.83-1.85,10.45-1.85c3.97,0,6.61,1.35,7.93,4.03 c1.32,2.69,1.98,6.85,1.98,12.5v35.31h17.72V62.58c0-10.84-1.68-18.86-5.03-24.07c-3.35-5.2-9.43-7.8-18.25-7.8 c-5.02,0-10.53,1.77-16.53,5.29v-3.7h-17.59v66.12h17.72V48.95z M423.51,0v32.56l-2.51-0.53c-5.03-0.88-8.95-1.32-11.77-1.32 c-9.17,0-16.02,2.76-20.56,8.27c-4.54,5.51-6.81,14.28-6.81,26.32c0,12.03,1.89,20.83,5.68,26.38s10.49,8.33,20.1,8.33 c4.5,0,9.83-1.45,16-4.36v2.78h17.59V0H423.51z M410.08,84.13c-3.66,0-6.28-1.45-7.87-4.36c-1.59-2.91-2.38-7.8-2.38-14.68 c0-12.7,3.57-19.04,10.71-19.04c3.79,0,8.11,0.44,12.96,1.32v34.78l-1.85,0.4C417.6,83.6,413.74,84.13,410.08,84.13z M501.46,35.99 c-3.75-3.52-9.87-5.29-18.38-5.29s-17.48,1.28-26.91,3.83l0.53,12.3l24.86-1.06c2.73,0,4.71,0.51,5.95,1.52 c1.23,1.01,1.85,2.89,1.85,5.62v4.1l-14.15,1.06c-7.85,0.53-13.67,2.27-17.46,5.22c-3.79,2.95-5.69,7.96-5.69,15.01 c0,14.46,6.83,21.69,20.5,21.69c6.61,0,13.09-1.54,19.44-4.63c2.73,1.85,5.44,3.08,8.13,3.7c2.69,0.62,6.28,0.93,10.78,0.93 l0.53-13.35c-1.67-0.35-2.78-0.95-3.3-1.79c-0.53-0.84-0.88-2.32-1.06-4.43V52.92C507.09,45.16,505.21,39.52,501.46,35.99z  M489.37,69.32v14.15L487.38,84c-3.97,1.06-7.63,1.59-10.97,1.59c-4.32,0-6.48-2.42-6.48-7.27c0-4.85,2.47-7.49,7.41-7.93 L489.37,69.32z"/>
	<path fill="var(--brandColor-logoB)" d="M61.15,10.52H35.13L15.68,44.23c-3.68,6.38-0.87,13.98,5.02,17L2.12,94.74c-0.39,0.68,0.49,1.38,1.07,0.84 l31.59-29.22c4.8-4.44,4.06-11.36,0-15.16l27.99-37.47C63.75,12.41,62.81,10.52,61.15,10.52z"/>
	<path fill="var(--brandColor-logoF)" d="M20.01,36.8c-4.44,7.84,2.33,11.69,14.5,11.69l10.22,0c3.34,0,4.94,4.1,2.49,6.36l-16.43,15.2c0,0,6.86-7.46-10.57-7.46h-8.77c-2.83,0-4.59-3.06-3.18-5.51L20.01,36.8z"/>
</svg>
