<svg x="0px" y="0px" viewBox="0 0 300 300" enable-background="new 0 0 300 300" xml:space="preserve">
<circle fill="#18224D" cx="143.04" cy="150.1" r="75.42"/>
<path fill="#F26A3B" d="M202.61,76.16h-44.15l-32.99,57.19c-6.24,10.82-1.48,23.71,8.52,28.85l-31.53,56.85 c-0.66,1.16,0.83,2.34,1.81,1.43l53.6-49.57c8.14-7.53,6.88-19.27,0-25.71l47.48-63.57C207.02,79.37,205.42,76.16,202.61,76.16z"/>
<path fill="#FBB03B" d="M132.82,120.74c-7.54,13.31,3.95,19.83,24.6,19.83h17.34c5.66,0,8.39,6.95,4.23,10.8l-27.88,25.79 c0,0,11.64-12.66-17.93-12.66h-14.88c-4.8,0-7.79-5.19-5.39-9.34L132.82,120.74z"/>
<text transform="matrix(1 0 0 1 230.8285 75.5036)" font-family="'raleway'" font-size="12px">powerfull</text>
<text transform="matrix(1 0 0 1 28.4611 75.5034)" font-family="'raleway'" font-size="12px">smart</text>
<text transform="matrix(1 0 0 1 25.4398 193.5461)" font-family="'raleway'" font-size="12px">sharp</text>
<text transform="matrix(1 0 0 1 221.0985 230.6629)" font-family="'raleway'" font-size="12px">global</text>
<polyline fill="none" stroke="#F26A3B" stroke-miterlimit="10" points="47.04,80.8 61.21,80.8 124.71,144.3 "/>
<line fill="none" stroke="#FBB03B" stroke-miterlimit="10" x1="179.37" y1="80.8" x2="248.5" y2="80.8"/>
<line fill="none" stroke="#FBB03B" stroke-miterlimit="10" x1="49.37" y1="200.8" x2="118.5" y2="200.8"/>
<polyline fill="none" stroke="#F26A3B" stroke-miterlimit="10" points="231.67,237.28 216.5,237.28 173,193.78 "/>
</svg>
